<svg width="78" height="26" xmlns="http://www.w3.org/2000/svg"><g fill="#FFF"><path d="M33.19 1.07h-2.07a.12.12 0 0 0-.124.123V2.72H27.54a.12.12 0 0 0-.123.123v2.071c0 .07.052.123.123.123h3.457v7.108H27.54a.12.12 0 0 0-.123.123v2.071c0 .07.052.123.123.123h3.457v3.195c-.07 1.825-1.527 4.51-3.457 4.51a.12.12 0 0 0-.123.124v2.053c0 .07.052.123.123.123 3.141 0 5.669-3.668 5.757-6.793V1.194c.017-.071-.035-.124-.106-.124zm13.164 1.668H44.67a1.785 1.785 0 0 0-1.79-1.65c-.948 0-1.72.737-1.79 1.65H39.42a4.377 4.377 0 0 0-4.335 4.124c0 .018-.018.035-.018.053v13.322a4.398 4.398 0 0 0 4.353 4.23h6.933a4.405 4.405 0 0 0 4.195-4.212V6.88c-.088-2.247-1.93-4.072-4.195-4.142zm1.913 17.429a2.071 2.071 0 0 1-2 2H39.42c-1.123-.017-2.036-.947-2.036-2.106v-5.599h9.355a.12.12 0 0 0 .123-.123v-2.07a.12.12 0 0 0-.123-.124h-9.355V7.038c.035-1.088.93-1.966 2.019-2.001h6.845c1.106.035 2 .948 2 2.106v13.024h.018zm-41.405-5.81h-2.07a.12.12 0 0 0-.124.123v3.194c-.087 1.826-1.527 4.494-3.457 4.494a.12.12 0 0 0-.123.123v2.053c0 .07.052.123.123.123 3.106 0 5.634-3.616 5.757-6.722V14.48c.035-.07-.035-.123-.106-.123zM16.551 9.6c-.983 0-1.79.808-1.79 1.79 0 .984.807 1.791 1.79 1.791s1.79-.807 1.79-1.79-.79-1.79-1.79-1.79zm0 7.987c-.983 0-1.79.807-1.79 1.79s.807 1.79 1.79 1.79 1.79-.807 1.79-1.79-.79-1.79-1.79-1.79zm7.688-14.85H11.075V1.194a.12.12 0 0 0-.123-.123H8.881a.12.12 0 0 0-.123.123v3.739c0 .07.053.123.123.123h15.358a.12.12 0 0 0 .123-.123V2.86a.12.12 0 0 0-.123-.123z"/><path d="M20.026 6.195s0-.017 0 0h-7.143a4.415 4.415 0 0 0-4.125 3.95c-.018.035 0 .035-.018.07v9.97c.053 2.334 1.931 4.247 4.266 4.3h7.143a4.404 4.404 0 0 0 4.195-4.283V10.145a4.388 4.388 0 0 0-4.318-3.95zm2.019 13.954a2.071 2.071 0 0 1-2.001 2.001h-6.968c-1.106-.035-2.001-.948-2.001-2.106v-3.388h9.495a.12.12 0 0 0 .123-.123V14.48a.12.12 0 0 0-.123-.123h-9.495v-3.861a2.071 2.071 0 0 1 2-2.001h6.951a2.084 2.084 0 0 1 2.019 2.106v9.548zM4.949 5.055h1.896a.12.12 0 0 0 .123-.123V2.843a.12.12 0 0 0-.123-.123H5.248c-.896 0-1.633-.65-1.773-1.527-.018-.053-.07-.105-.123-.105H1.228c-.035 0-.07.035-.088.052a.188.188 0 0 0-.035.106A3.858 3.858 0 0 0 4.95 5.055zm0 6.283h1.896a.12.12 0 0 0 .123-.123v-2.07a.12.12 0 0 0-.123-.124h-1.58c-.895 0-1.632-.65-1.773-1.527-.017-.052-.07-.105-.122-.105H1.246c-.035 0-.07.035-.088.053a.188.188 0 0 0-.035.105c0 2.089 1.72 3.791 3.826 3.791zm71.823 2.019H74.77c-1.106-.018-2.475-.545-3.405-1.334a.134.134 0 0 0-.088-.035h-.017c-.036 0-.07.035-.088.052a7.054 7.054 0 0 1-1.282 1.527c-.035.018-.035.053-.035.088 0 .035.018.07.053.088 1.387 1.176 3.194 1.878 4.862 1.895h2.018a.12.12 0 0 0 .123-.123V13.48c-.017-.07-.07-.122-.14-.122zm-10.62 1.088c2.967-.386 5.284-3.95 5.284-6.95a.12.12 0 0 0-.123-.124H60.624v-1a.12.12 0 0 0-.123-.123H58.43a.12.12 0 0 0-.123.123v3.194c0 .07.053.123.123.123h10.163c-.597 1.3-1.65 2.457-2.896 2.457H53.568a.12.12 0 0 0-.123.123v2.071c0 .07.053.123.123.123h12.515c.035 0 .035 0 .07-.017z"/><path d="M76.895 7.055a4.39 4.39 0 0 0-4.072-4.317h-5.898a1.785 1.785 0 0 0-1.79-1.65c-.948 0-1.72.737-1.79 1.65H57.43c-2.212.193-3.95 2.053-3.985 4.317v.843c0 .07.053.123.123.123h2.071a.12.12 0 0 0 .123-.123v-.843a2.096 2.096 0 0 1 2.106-2.018h14.726c1.089.035 1.966.93 2.001 2.018v.843c0 .07.053.123.123.123h2.071a.12.12 0 0 0 .123-.123l-.017-.843zm-6.038 8.583c-.018 0-.018 0 0 0H59.413a4.401 4.401 0 0 0-4.353 4.423v.018a4.39 4.39 0 0 0 4.335 4.388H70.84a4.41 4.41 0 0 0 4.336-4.423v-.018c.017-2.404-1.931-4.353-4.318-4.388zm0 6.512s-.018 0 0 0H59.413a2.084 2.084 0 0 1-2.019-2.106v-.018c0-1.123.896-2.036 2.019-2.07h11.444a2.084 2.084 0 0 1 2.018 2.105v.018c0 1.123-.912 2.054-2.018 2.071z"/></g></svg>