<svg width="78" height="26" xmlns="http://www.w3.org/2000/svg"><path d="M6.12 6.728c-2.052 0-3.6.666-4.68 2.034C.468 9.968 0 11.516 0 13.424c0 1.944.45 3.492 1.386 4.644 1.062 1.332 2.646 2.016 4.752 2.016 1.386 0 2.574-.396 3.564-1.188 1.062-.846 1.728-2.016 2.016-3.51H9.81c-.252 1.008-.702 1.764-1.35 2.268-.612.468-1.404.702-2.34.702-1.44 0-2.502-.45-3.186-1.35-.648-.846-.972-2.034-.972-3.582 0-1.494.324-2.682.99-3.546.702-.954 1.746-1.422 3.132-1.422.936 0 1.692.198 2.304.612.612.414 1.026 1.062 1.242 1.926h1.908c-.198-1.296-.774-2.34-1.71-3.096-.972-.792-2.214-1.17-3.708-1.17zm7.92.252h5.688c1.296 0 2.34.288 3.096.882.792.648 1.188 1.566 1.188 2.79 0 .684-.18 1.278-.54 1.8a2.876 2.876 0 0 1-1.674 1.134v.036c1.152.252 1.782 1.008 1.926 2.268l.216 2.052c.072.792.324 1.422.756 1.89h-2.124c-.306-.396-.486-.972-.558-1.692l-.162-1.602c-.072-.72-.306-1.224-.684-1.548-.396-.324-.954-.468-1.692-.468h-3.474v5.31H14.04V6.98zm1.962 1.674v4.194h3.474c.864 0 1.512-.198 1.944-.558.414-.36.63-.882.63-1.566 0-.72-.216-1.242-.612-1.566-.432-.342-1.08-.504-1.98-.504h-3.456zM26.838 6.98v12.852H28.8v-9.18h.072l3.942 9.18h1.692l3.942-9.18h.072v9.18h1.962V6.98H38.16l-4.464 10.296h-.054L29.16 6.98h-2.322zm19.548 4.734v.234c-.108 4.068-.918 7.29-2.412 9.702l-1.26-1.332c1.224-2.016 1.89-4.806 1.98-8.37V6.35c4.716-.036 8.946-.432 12.654-1.17l.846 1.548c-3.51.666-7.452 1.062-11.808 1.17v2.16h12.78v1.656h-12.78zm11.43 2.124v7.848h-1.71v-.72h-6.642v.72h-1.71v-7.848h10.062zm-8.352 5.454h6.642v-3.816h-6.642v3.816zm26.118-5.238v7.65h-1.728v-.738h-8.856v.738H63.27v-7.65h12.312zm-10.584 5.274h8.856v-3.636h-8.856v3.636zM62.1 12.38c4.608-.18 8.802-.432 12.564-.756.414.666.828 1.368 1.26 2.124l1.674-.828a52.65 52.65 0 0 0-4.158-5.958l-1.548.738a38.022 38.022 0 0 1 1.764 2.412c-2.862.27-5.814.468-8.874.576 1.512-1.368 2.988-3.06 4.446-5.076L67.446 5c-2.412 3.528-4.302 5.454-5.67 5.76l.324 1.62z" fill="#4997F1" fill-rule="evenodd"/></svg>